<?xml version="1.0" encoding="UTF-8"?>
<!-- Generated by jsxcad -->
<!DOCTYPE svg PUBLIC "-//W3C//DTD SVG 1.1 Tiny//EN" "http://www.w3.org/Graphics/SVG/1.1/DTD/svg11-tiny.dtd">
<svg baseProfile="tiny" height="100.0768672951414mm" width="20mm" viewBox="-10 -50.03813038433647 20 100.0768672951414" version="1.1" stroke="black" stroke-width=".1" fill="none" xmlns="http://www.w3.org/2000/svg">
<path fill="none" stroke="#000000" d="M 10 50.03813038433647 L -5 50.03813038433647 M 10 50.03813038433647 L -5 42.961988252356775 M 10 42.961988252356775 L -5 42.961988252356775 M 5 36.89672356780275 L 4.285714285714285 37.90760101522842 L 2.8571428571428568 38.91847846265409 L 0.7142857142857135 39.42391718636693 L -0.7142857142857144 39.42391718636693 L -2.857142857142857 38.91847846265409 L -4.285714285714286 37.90760101522842 L -5 36.89672356780275 L -5 35.380407396664246 L -4.285714285714286 34.369529949238576 L -2.857142857142857 33.3586525018129 L -0.7142857142857144 32.85321377810007 L 0.7142857142857135 32.85321377810007 L 2.8571428571428568 33.3586525018129 L 4.285714285714285 34.369529949238576 L 5 35.380407396664246 L 5 36.89672356780275 M 6.428571428571427 14.151981000725161 L 7.857142857142856 14.657419724437998 L 9.285714285714285 15.668297171863669 L 10 16.679174619289338 L 10 18.700929514140675 L 9.285714285714285 19.711806961566353 L 7.857142857142856 20.722684408992027 L 6.428571428571427 21.228123132704855 L 4.285714285714285 21.733561856417694 L 0.7142857142857135 21.733561856417694 L -1.4285714285714288 21.228123132704855 L -2.857142857142857 20.722684408992027 L -4.285714285714286 19.711806961566353 L -5 18.700929514140675 L -5 16.679174619289338 L -4.285714285714286 15.668297171863669 L -2.857142857142857 14.657419724437998 L -1.4285714285714288 14.151981000725161 L 0.7142857142857135 14.151981000725161 M 0.7142857142857135 16.679174619289338 L 0.7142857142857135 14.151981000725161 M 0.7142857142857135 11.11934865844815 L 0.7142857142857135 5.054083973894133 L 2.1428571428571423 5.054083973894133 L 3.571428571428571 5.559522697606964 L 4.285714285714285 6.064961421319794 L 5 7.075838868745467 L 5 8.592155039883975 L 4.285714285714285 9.603032487309642 L 2.8571428571428568 10.613909934735315 L 0.7142857142857135 11.11934865844815 L -0.7142857142857144 11.11934865844815 L -2.857142857142857 10.613909934735315 L -4.285714285714286 9.603032487309642 L -5 8.592155039883975 L -5 7.075838868745467 L -4.285714285714286 6.064961421319794 L -2.857142857142857 5.054083973894133 M 5 -0.5057419869470587 L 4.285714285714285 0.5051354604786034 L 2.8571428571428568 1.5160129079042854 L 0.7142857142857135 2.0214516316171163 L -0.7142857142857144 2.0214516316171163 L -2.857142857142857 1.5160129079042854 L -4.285714285714286 0.5051354604786034 L -5 -0.5057419869470587 L -5 -2.022058158085562 L -4.285714285714286 -3.032935605511244 L -2.857142857142857 -4.043813052936906 L -0.7142857142857144 -4.549251776649747 L 0.7142857142857135 -4.549251776649747 L 2.8571428571428568 -4.043813052936906 L 4.285714285714285 -3.032935605511244 L 5 -2.022058158085562 L 5 -0.5057419869470587 M 5 -8.087322842639594 L -5 -8.087322842639594 M 2.1428571428571423 -8.087322842639594 L 4.285714285714285 -9.603639013778098 L 5 -10.61451646120376 L 5 -12.130832632342273 L 4.285714285714285 -13.141710079767945 L 2.1428571428571423 -13.647148803480777 L -5 -13.647148803480777 M 2.1428571428571423 -13.647148803480777 L 4.285714285714285 -15.16346497461929 L 5 -16.17434242204495 L 5 -17.690658593183453 L 4.285714285714285 -18.701536040609138 L 2.1428571428571423 -19.206974764321966 L -5 -19.206974764321966 M 0.7142857142857135 -22.745045830311813 L 0.7142857142857135 -28.810310514865836 L 2.1428571428571423 -28.810310514865836 L 3.571428571428571 -28.304871791152998 L 4.285714285714285 -27.799433067440166 L 5 -26.788555620014492 L 5 -25.272239448876 L 4.285714285714285 -24.26136200145032 L 2.8571428571428568 -23.250484554024645 L 0.7142857142857135 -22.745045830311813 L -0.7142857142857144 -22.745045830311813 L -2.857142857142857 -23.250484554024645 L -4.285714285714286 -24.26136200145032 L -5 -25.272239448876 L -5 -26.788555620014492 L -4.285714285714286 -27.799433067440166 L -2.857142857142857 -28.810310514865836 M 10 -32.85382030456853 L -2.1428571428571432 -32.85382030456853 L -4.285714285714286 -33.35925902828136 L -5 -34.37013647570703 L -5 -35.38101392313269 M 5 -31.337504133430013 L 5 -34.87557519941986 M 5 -38.41364626540971 L -5 -38.41364626540971 M 0.7142857142857135 -38.41364626540971 L 2.8571428571428568 -38.91908498912254 L 4.285714285714285 -39.92996243654822 L 5 -40.94083988397388 L 5 -42.457156055112385 M 5 -43.97347222625091 L -5 -47.00610456852792 M 5 -50.03873691080492 L -5 -47.00610456852792 L -7.857142857142857 -45.99522712110223 L -9.285714285714285 -44.98434967367657 L -10 -43.97347222625091 L -10 -43.46803350253807"/>
</svg>