<?xml version="1.0" encoding="UTF-8"?>
<!-- Generated by jsxcad -->
<!DOCTYPE svg PUBLIC "-//W3C//DTD SVG 1.1 Tiny//EN" "http://www.w3.org/Graphics/SVG/1.1/DTD/svg11-tiny.dtd">
<svg baseProfile="tiny" height="26.889340101522862mm" width="38.00000000000003mm" viewBox="-31.000000000000014 -4.953299492385795 38.00000000000003 26.889340101522862" version="1.1" stroke="black" stroke-width=".1" fill="none" xmlns="http://www.w3.org/2000/svg">
<path fill="#bababa" stroke="#bababa" d="M-31 -21.936040609137052 L7 -21.936040609137052 L7 4.953299492385786 L-31 4.953299492385786 M-23.805663342056775 -2.1857443948897397 L-24 -2.1900659898477155 L-24.194336657943225 -2.1857443948897397 L-24.387906357881523 -2.172796665376762 L-24.57994516864282 -2.1512739000819163 L-24.769695200775224 -2.1212610395270044 L-24.956407597590463 -2.082876530761065 L-25.139345490559077 -2.0362718599039833 L-25.3177869073939 -1.9816309542999835 L-25.49102762134481 -1.9191694566404291 L-25.658383930459994 -1.8491338739206382 L-25.819195355845203 -1.7718006045893926 L-25.972827248272193 -1.6874748477305315 L-26.11867329284929 -1.5964893985816038 L-26.25615790186927 -1.499203335143102 L-26.38473848639107 -1.3960006010616435 L-26.503907597590462 -1.2872884903798036 L-26.613194929428737 -1.1734960401326042 L-26.712169174735756 -1.0550723371343458 L-26.80043972738233 -0.9324847456381186 L-26.877658223824138 -0.8062170628626153 L-26.9435199179335 -0.6767676096655338 L-26.99776488369311 -0.5446472638988129 L-27.040179041005292 -0.4103774442071495 L-27.070595000568307 -0.274488052226821 L-27.0888927244855 -0.1375153813060159 L-27.095 2.297358822157994e-15 L-27.088892724485497 0.1375153813060205 L-27.070595000568307 0.27448805222682504 L-27.04017904100529 0.4103774442071536 L-26.99776488369311 0.5446472638988169 L-26.943519917933497 0.6767676096655378 L-26.877658223824135 0.8062170628626195 L-26.800439727382326 0.9324847456381228 L-26.712169174735752 1.0550723371343498 L-26.613194929428733 1.1734960401326082 L-26.50390759759046 1.2872884903798074 L-26.38473848639106 1.396000601061647 L-26.256157901869265 1.4992033351431049 L-26.118673292849287 1.5964893985816067 L-25.97282724827219 1.6874748477305341 L-25.8191953558452 1.7718006045893953 L-25.658383930459987 1.849133873920641 L-25.491027621344802 1.9191694566404314 L-25.31778690739389 1.981630954299986 L-25.13934549055907 2.0362718599039855 L-24.956407597590456 2.082876530761067 L-24.769695200775217 2.1212610395270057 L-24.57994516864281 2.1512739000819177 L-24.387906357881512 2.1727966653767634 L-24.194336657943214 2.1857443948897397 L-23.999999999999993 2.1900659898477155 L-23.805663342056768 2.1857443948897393 L-23.61209364211847 2.1727966653767616 L-23.420054831357174 2.151273900081916 L-23.230304799224765 2.121261039527004 L-23.04359240240953 2.082876530761064 L-22.860654509440913 2.036271859903982 L-22.68221309260609 1.9816309542999817 L-22.508972378655184 1.9191694566404272 L-22.34161606954 1.849133873920636 L-22.180804644154787 1.7718006045893897 L-22.027172751727797 1.6874748477305284 L-21.881326707150702 1.5964893985816 L-21.743842098130724 1.499203335143098 L-21.615261513608925 1.3960006010616395 L-21.49609240240953 1.2872884903797999 L-21.386805070571256 1.1734960401325996 L-21.287830825264237 1.0550723371343416 L-21.199560272617664 0.9324847456381137 L-21.12234177617586 0.806217062862611 L-21.056480082066493 0.6767676096655282 L-21.00223511630688 0.5446472638988079 L-20.959820958994705 0.41037744420714356 L-20.92940499943169 0.27448805222681594 L-20.911107275514496 0.1375153813060118 L-20.904999999999998 -1.341028652194242e-16 L-20.911107275514496 -0.13751538130601834 L-20.92940499943169 -0.2744880522268234 L-20.959820958994708 -0.41037744420715183 L-21.002235116306885 -0.5446472638988147 L-21.056480082066496 -0.6767676096655357 L-21.122341776175862 -0.8062170628626175 L-21.199560272617667 -0.9324847456381209 L-21.28783082526424 -1.055072337134348 L-21.386805070571263 -1.1734960401326062 L-21.496092402409538 -1.2872884903798054 L-21.61526151360893 -1.3960006010616453 L-21.74384209813073 -1.4992033351431036 L-21.88132670715071 -1.596489398581605 L-22.027172751727804 -1.6874748477305328 L-22.180804644154794 -1.7718006045893937 L-22.341616069540006 -1.8491338739206398 L-22.50897237865519 -1.91916945664043 L-22.682213092606098 -1.9816309542999844 L-22.86065450944092 -2.036271859903984 L-23.043592402409537 -2.082876530761066 L-23.230304799224776 -2.1212610395270053 L-23.42005483135718 -2.151273900081917 L-23.612093642118477 -2.1727966653767625 z"/>
</svg>