<?xml version="1.0" encoding="UTF-8"?>
<!-- Generated by jsxcad -->
<!DOCTYPE svg PUBLIC "-//W3C//DTD SVG 1.1 Tiny//EN" "http://www.w3.org/Graphics/SVG/1.1/DTD/svg11-tiny.dtd">
<svg baseProfile="tiny" height="7.076142131979699mm" width="10.000000000000007mm" viewBox="-5.0000000000000036 -3.5380710659898496 10.000000000000007 7.076142131979699" version="1.1" stroke="black" stroke-width=".1" fill="none" xmlns="http://www.w3.org/2000/svg">
<path fill="#bababa" stroke="#bababa" d="M4.990133642141357 -0.22215732036513464 L5 -2.166443703060165e-16 L4.990133642141359 0.2221573203651241 L4.96057350657239 0.4434378872808012 L4.911436253643447 0.6629684074428812 L4.842915805643159 0.8798824941822423 L4.755282581475773 1.0933240866971377 L4.648882429441262 1.3024508285341048 L4.5241352623301045 1.5064373919840282 L4.3815334002193245 1.7044787352735729 L4.221639627510084 1.895793279697253 L4.045084971874744 2.0796259941515345 L3.852566213878955 2.25525137489764 L3.644843137107067 2.421976308793373 L3.422735529643453 2.5791428086940225 L3.1871199487434585 2.726130610227025 L2.9389262614623757 2.8623596196920666 L2.679133974894993 2.987292203425906 L2.4087683705085863 3.1004353095968122 L2.1288964578253733 3.201342414054898 L1.8406227634233998 3.289615282558937 L1.5450849718747468 3.3649055424249825 L1.2434494358242836 3.4269160573941897 L0.9369065729286326 3.4754021002938864 L0.6266661678215325 3.5101723188639125 L0.31395259764657774 3.531089490936574 L1.048990684667789e-14 3.5380710659898473 L-0.31395259764655464 3.531089490936575 L-0.6266661678215094 3.5101723188639142 L-0.9369065729286119 3.475402100293889 L-1.2434494358242631 3.4269160573941937 L-1.5450849718747268 3.3649055424249865 L-1.8406227634233803 3.2896152825589424 L-2.128896457825354 3.201342414054904 L-2.408768370508568 3.1004353095968193 L-2.679133974894975 2.987292203425914 L-2.938926261462359 2.862359619692076 L-3.1871199487434425 2.726130610227034 L-3.422735529643438 2.5791428086940327 L-3.6448431371070527 2.4219763087933837 L-3.8525662138789407 2.255251374897653 L-4.045084971874732 2.0796259941515465 L-4.22163962751007 1.8957932796972667 L-4.381533400219314 1.704478735273586 L-4.524135262330094 1.506437391984043 L-4.6488824294412545 1.3024508285341185 L-4.7552825814757655 1.093324086697153 L-4.842915805643154 0.8798824941822566 L-4.911436253643442 0.6629684074428974 L-4.960573506572388 0.4434378872808159 L-4.990133642141357 0.22215732036513813 L-5 3.711403589915984e-15 L-4.990133642141358 -0.22215732036513072 L-4.9605735065723895 -0.4434378872808093 L-4.911436253643444 -0.662968407442891 L-4.842915805643156 -0.8798824941822502 L-4.755282581475768 -1.0933240866971468 L-4.648882429441258 -1.3024508285341116 L-4.524135262330098 -1.5064373919840366 L-4.381533400219319 -1.7044787352735795 L-4.2216396275100765 -1.8957932796972605 L-4.045084971874738 -2.0796259941515403 L-3.8525662138789474 -2.255251374897647 L-3.644843137107059 -2.421976308793379 L-3.4227355296434445 -2.5791428086940287 L-3.1871199487434496 -2.7261306102270297 L-2.9389262614623672 -2.862359619692072 L-2.679133974894985 -2.98729220342591 L-2.4087683705085783 -3.1004353095968153 L-2.1288964578253657 -3.2013424140549005 L-1.8406227634233923 -3.2896152825589393 L-1.54508497187474 -3.364905542424984 L-1.2434494358242767 -3.4269160573941915 L-0.9369065729286259 -3.4754021002938877 L-0.6266661678215238 -3.5101723188639133 L-0.3139525976465696 -3.5310894909365746 L-2.7248972640692434e-15 -3.5380710659898473 L0.3139525976465641 -3.5310894909365746 L0.6266661678215185 -3.510172318863914 L0.9369065729286205 -3.4754021002938886 L1.2434494358242711 -3.4269160573941924 L1.5450849718747346 -3.364905542424985 L1.8406227634233876 -3.28961528255894 L2.128896457825361 -3.201342414054902 L2.408768370508574 -3.100435309596817 L2.6791339748949805 -2.987292203425912 L2.9389262614623632 -2.8623596196920738 L3.1871199487434465 -2.726130610227032 L3.4227355296434405 -2.5791428086940305 L3.6448431371070553 -2.421976308793382 L3.852566213878944 -2.2552513748976493 L4.0450849718747355 -2.0796259941515434 L4.221639627510073 -1.8957932796972634 L4.3815334002193165 -1.7044787352735828 L4.5241352623300966 -1.50643739198404 L4.648882429441255 -1.3024508285341154 L4.755282581475767 -1.0933240866971496 L4.842915805643155 -0.8798824941822533 L4.911436253643442 -0.6629684074428946 L4.960573506572389 -0.44343788728081324 z"/>
</svg>